<svg width="24" height="24" viewBox="0 0 24 24" fill="none" xmlns="http://www.w3.org/2000/svg">
<rect width="24" height="24" rx="12" fill="#21292C"/>
<g clip-path="url(#clip0_1_15267)">
<path d="M11.7952 9.39379C11.3173 9.39379 10.5777 8.85052 9.7988 8.87015C8.77116 8.88324 7.82862 9.46579 7.29844 10.3887C6.23153 12.2411 7.02353 14.9771 8.06426 16.4825C8.5748 17.2156 9.17698 18.0403 9.97553 18.0142C10.7413 17.9814 11.0293 17.5167 11.9588 17.5167C12.8817 17.5167 13.1435 18.0142 13.9552 17.9945C14.7799 17.9814 15.3035 17.2483 15.8075 16.5087C16.3901 15.6578 16.6323 14.8331 16.6453 14.7872C16.6257 14.7807 15.0417 14.172 15.0221 12.3392C15.009 10.8076 16.2723 10.0745 16.3312 10.0418C15.6112 8.98797 14.505 8.87015 14.1188 8.84397C13.1108 8.76542 12.2664 9.39379 11.7952 9.39379ZM13.497 7.84906C13.9224 7.33852 14.2039 6.62506 14.1253 5.91815C13.5166 5.94433 12.7835 6.32397 12.345 6.83452C11.9523 7.28615 11.6119 8.0127 11.7035 8.70652C12.3777 8.75888 13.0715 8.35961 13.497 7.84906Z" fill="white"/>
</g>
<defs>
<clipPath id="clip0_1_15267">
<rect width="13.0909" height="13.0909" fill="white" transform="translate(5.45477 5.45453)"/>
</clipPath>
</defs>
</svg>
