<svg width="16" height="20" viewBox="0 0 16 20" fill="none" xmlns="http://www.w3.org/2000/svg">
<path d="M7.68672 6.01833C6.95672 6.01833 5.82672 5.18833 4.63672 5.21833C3.06672 5.23833 1.62672 6.12833 0.816718 7.53833C-0.813282 10.3683 0.396718 14.5483 1.98672 16.8483C2.76672 17.9683 3.68672 19.2283 4.90672 19.1883C6.07672 19.1383 6.51672 18.4283 7.93672 18.4283C9.34672 18.4283 9.74672 19.1883 10.9867 19.1583C12.2467 19.1383 13.0467 18.0183 13.8167 16.8883C14.7067 15.5883 15.0767 14.3283 15.0967 14.2583C15.0667 14.2483 12.6467 13.3183 12.6167 10.5183C12.5967 8.17833 14.5267 7.05833 14.6167 7.00833C13.5167 5.39833 11.8267 5.21833 11.2367 5.17833C9.69672 5.05833 8.40672 6.01833 7.68672 6.01833ZM10.2867 3.65833C10.9367 2.87833 11.3667 1.78833 11.2467 0.708328C10.3167 0.748328 9.19672 1.32833 8.52672 2.10833C7.92672 2.79833 7.40672 3.90833 7.54672 4.96833C8.57672 5.04833 9.63672 4.43833 10.2867 3.65833Z" fill="#20292C"/>
</svg>
