<svg width="16" height="16" viewBox="0 0 16 16" fill="none" xmlns="http://www.w3.org/2000/svg">
<path d="M5.93824 12.4884C6.06292 12.6131 6.22193 12.6717 6.37996 12.6717C6.53465 12.6717 6.70253 12.6151 6.82319 12.4869C7.06383 12.2446 7.06333 11.8466 6.82168 11.6049L3.21674 7.99999L6.82168 4.39504C7.06383 4.15289 7.06383 3.75375 6.82168 3.5116C6.57953 3.26945 6.18039 3.26945 5.93824 3.5116L1.89157 7.55826C1.64942 7.80041 1.64942 8.19956 1.89157 8.44171L5.93824 12.4884Z" fill="#292D32" stroke="#292D32" stroke-width="0.25"/>
<path d="M2.44661 8.625H13.6666C14.009 8.625 14.2916 8.34237 14.2916 8C14.2916 7.65763 14.009 7.375 13.6666 7.375H2.44661C2.10424 7.375 1.82161 7.65763 1.82161 8C1.82161 8.34237 2.10424 8.625 2.44661 8.625Z" fill="#292D32" stroke="#292D32" stroke-width="0.25"/>
</svg>
