<svg width="15" height="15" viewBox="0 0 15 15" fill="none" xmlns="http://www.w3.org/2000/svg">
<path d="M1.66665 9.66666V1.66666H0.333313V0.333328H2.33331C2.51012 0.333328 2.67969 0.403566 2.80472 0.52859C2.92974 0.653615 2.99998 0.823184 2.99998 0.999995V9H11.292L12.6253 3.66666H4.33331V2.33333H13.48C13.5813 2.33333 13.6813 2.35644 13.7724 2.40089C13.8635 2.44534 13.9432 2.50996 14.0055 2.58985C14.0679 2.66974 14.1112 2.76279 14.1322 2.86194C14.1532 2.96108 14.1513 3.0637 14.1266 3.16199L12.46 9.82866C12.4239 9.97283 12.3406 10.1008 12.2235 10.1922C12.1063 10.2837 11.9619 10.3333 11.8133 10.3333H2.33331C2.1565 10.3333 1.98693 10.2631 1.86191 10.1381C1.73688 10.013 1.66665 9.84347 1.66665 9.66666ZM2.99998 14.3333C2.64636 14.3333 2.30722 14.1929 2.05717 13.9428C1.80712 13.6928 1.66665 13.3536 1.66665 13C1.66665 12.6464 1.80712 12.3072 2.05717 12.0572C2.30722 11.8071 2.64636 11.6667 2.99998 11.6667C3.3536 11.6667 3.69274 11.8071 3.94279 12.0572C4.19284 12.3072 4.33331 12.6464 4.33331 13C4.33331 13.3536 4.19284 13.6928 3.94279 13.9428C3.69274 14.1929 3.3536 14.3333 2.99998 14.3333ZM11 14.3333C10.6464 14.3333 10.3072 14.1929 10.0572 13.9428C9.80712 13.6928 9.66665 13.3536 9.66665 13C9.66665 12.6464 9.80712 12.3072 10.0572 12.0572C10.3072 11.8071 10.6464 11.6667 11 11.6667C11.3536 11.6667 11.6927 11.8071 11.9428 12.0572C12.1928 12.3072 12.3333 12.6464 12.3333 13C12.3333 13.3536 12.1928 13.6928 11.9428 13.9428C11.6927 14.1929 11.3536 14.3333 11 14.3333Z" fill="black"/>
</svg>
