<svg width="22" height="22" viewBox="0 0 22 22" fill="none" xmlns="http://www.w3.org/2000/svg">
<rect x="0.25" y="0.25" width="21.5" height="21.5" rx="10.75" fill="white"/>
<path d="M11 15.0208C10.8709 15.0208 10.7459 15.0042 10.6417 14.9667C9.05004 14.4208 6.52087 12.4833 6.52087 9.62082C6.52087 8.16249 7.70004 6.97916 9.15004 6.97916C9.85421 6.97916 10.5125 7.25416 11 7.74582C11.4875 7.25416 12.1459 6.97916 12.85 6.97916C14.3 6.97916 15.4792 8.16666 15.4792 9.62082C15.4792 12.4875 12.95 14.4208 11.3584 14.9667C11.2542 15.0042 11.1292 15.0208 11 15.0208ZM9.15004 7.60416C8.04587 7.60416 7.14587 8.50832 7.14587 9.62082C7.14587 12.4667 9.88337 14.05 10.8459 14.3792C10.9209 14.4042 11.0834 14.4042 11.1584 14.3792C12.1167 14.05 14.8584 12.4708 14.8584 9.62082C14.8584 8.50832 13.9584 7.60416 12.8542 7.60416C12.2209 7.60416 11.6334 7.89999 11.2542 8.41249C11.1375 8.57082 10.8709 8.57082 10.7542 8.41249C10.3667 7.89582 9.78337 7.60416 9.15004 7.60416Z" fill="#FA4D51"/>
<rect x="0.25" y="0.25" width="21.5" height="21.5" rx="10.75" stroke="#E6E7E8" stroke-width="0.5"/>
</svg>
