<svg width="24" height="24" viewBox="0 0 24 24" fill="none" xmlns="http://www.w3.org/2000/svg">
<rect width="24" height="24" rx="12" fill="#F2F2F2"/>
<g clip-path="url(#clip0_1_15254)">
<path d="M18.4066 12.1472C18.4066 11.7163 18.3684 11.3072 18.3029 10.9091H12.1393V13.3691H15.6684C15.5102 14.1763 15.0466 14.8581 14.3593 15.3218V16.9581H16.4647C17.6975 15.8181 18.4066 14.1381 18.4066 12.1472Z" fill="#4285F4"/>
<path d="M12.1392 18.5454C13.9065 18.5454 15.3847 17.9564 16.4647 16.9582L14.3592 15.3218C13.7702 15.7145 13.0229 15.9545 12.1392 15.9545C10.432 15.9545 8.98652 14.8036 8.46833 13.2491H6.29742V14.9345C7.37197 17.0727 9.58106 18.5454 12.1392 18.5454Z" fill="#34A853"/>
<path d="M8.46836 13.2491C8.33199 12.8563 8.26108 12.4363 8.26108 12C8.26108 11.5636 8.33745 11.1436 8.46836 10.7509V9.06543H6.29745C5.85017 9.94907 5.59381 10.9418 5.59381 12C5.59381 13.0582 5.85017 14.0509 6.29745 14.9345L8.46836 13.2491Z" fill="#FBBC05"/>
<path d="M12.1392 8.04544C13.1047 8.04544 13.9665 8.37817 14.6483 9.02726L16.5138 7.1618C15.3847 6.10362 13.9065 5.45453 12.1392 5.45453C9.58106 5.45453 7.37197 6.92726 6.29742 9.06544L8.46833 10.7509C8.98652 9.19635 10.432 8.04544 12.1392 8.04544Z" fill="#EA4335"/>
</g>
<defs>
<clipPath id="clip0_1_15254">
<rect width="13.0909" height="13.0909" fill="white" transform="translate(5.45471 5.45453)"/>
</clipPath>
</defs>
</svg>
