<svg width="12" height="15" viewBox="0 0 12 15" fill="none" xmlns="http://www.w3.org/2000/svg">
<path d="M10.2427 10.576L6 14.8187L1.75734 10.576C0.918229 9.73689 0.346791 8.66779 0.115286 7.5039C-0.11622 6.34002 0.00260456 5.13362 0.456733 4.03727C0.91086 2.94092 1.6799 2.00385 2.66659 1.34457C3.65328 0.685281 4.81332 0.333389 6 0.333389C7.18669 0.333389 8.34672 0.685281 9.33342 1.34457C10.3201 2.00385 11.0891 2.94092 11.5433 4.03727C11.9974 5.13362 12.1162 6.34002 11.8847 7.5039C11.6532 8.66779 11.0818 9.73689 10.2427 10.576ZM6 7.66667C6.35362 7.66667 6.69276 7.52619 6.94281 7.27615C7.19286 7.0261 7.33334 6.68696 7.33334 6.33334C7.33334 5.97971 7.19286 5.64058 6.94281 5.39053C6.69276 5.14048 6.35362 5 6 5C5.64638 5 5.30724 5.14048 5.05719 5.39053C4.80715 5.64058 4.66667 5.97971 4.66667 6.33334C4.66667 6.68696 4.80715 7.0261 5.05719 7.27615C5.30724 7.52619 5.64638 7.66667 6 7.66667Z" fill="#4285F4"/>
</svg>
