<svg xmlns="http://www.w3.org/2000/svg" enable-background="new 0 0 16 16" viewBox="0 0 16 16"><g display="none"><line x1="8" x2="8" y1="12.5" y2="15.5" fill="none" stroke="#000" stroke-linecap="round" stroke-linejoin="round" stroke-miterlimit="10"/><path fill="none" stroke="#000" stroke-linecap="round" stroke-linejoin="round" stroke-miterlimit="10" d="M12.5,7.5V8c0,2.5-2,4.5-4.5,4.5h0c-2.5,0-4.5-2-4.5-4.5V7.5"/><line x1="8.5" x2="10.5" y1="3.5" y2="3.5" fill="none" stroke="#000" stroke-linecap="round" stroke-linejoin="round" stroke-miterlimit="10"/><line x1="8.5" x2="10.5" y1="5.5" y2="5.5" fill="none" stroke="#000" stroke-linecap="round" stroke-linejoin="round" stroke-miterlimit="10"/><line x1="8.5" x2="10.5" y1="7.5" y2="7.5" fill="none" stroke="#000" stroke-linecap="round" stroke-linejoin="round" stroke-miterlimit="10"/><path fill="none" stroke="#000" stroke-linecap="round" stroke-linejoin="round" stroke-miterlimit="10" d="M5.5,5.5V8c0,1.4,1.1,2.5,2.5,2.5h0c1.4,0,2.5-1.1,2.5-2.5V3c0-1.4-1.1-2.5-2.5-2.5h0C6.6,0.5,5.5,1.6,5.5,3
		v0.5"/></g><g display="none"><path d="M12.5,7C12.2,7,12,7.2,12,7.5V8c0,2.2-1.8,4-4,4s-4-1.8-4-4V7.5C4,7.2,3.8,7,3.5,7S3,7.2,3,7.5V8c0,2.6,2,4.7,4.5,4.9v2.6
			C7.5,15.8,7.7,16,8,16s0.5-0.2,0.5-0.5v-2.6C11,12.7,13,10.6,13,8V7.5C13,7.2,12.8,7,12.5,7z"/><path d="M8,11c1.7,0,3-1.3,3-3V3c0-1.7-1.3-3-3-3S5,1.3,5,3v0.5C5,3.8,5.2,4,5.5,4S6,3.8,6,3.5V3c0-1.1,0.9-2,2-2s2,0.9,2,2H8.5
			C8.2,3,8,3.2,8,3.5S8.2,4,8.5,4H10v1H8.5C8.2,5,8,5.2,8,5.5S8.2,6,8.5,6H10v1H8.5C8.2,7,8,7.2,8,7.5S8.2,8,8.5,8H10
			c0,1.1-0.9,2-2,2S6,9.1,6,8V5.5C6,5.2,5.8,5,5.5,5S5,5.2,5,5.5V8C5,9.7,6.3,11,8,11z"/></g><g display="none"><path fill="#d7dce0" d="M9,2.5v6c0,0.7-0.2,1.4-0.6,2c-0.1,0-0.3,0-0.4,0c-1.4,0-2.5-1.1-2.5-2.5V3c0-1.4,1.1-2.5,2.5-2.5
			c0.1,0,0.3,0,0.4,0C8.8,1.1,9,1.8,9,2.5z"/><path fill="#3e3643" d="M12.5,7C12.2,7,12,7.2,12,7.5V8c0,2.2-1.8,4-4,4s-4-1.8-4-4V7.5C4,7.2,3.8,7,3.5,7S3,7.2,3,7.5V8
				c0,2.6,2,4.7,4.5,4.9v2.6C7.5,15.8,7.7,16,8,16s0.5-0.2,0.5-0.5v-2.6C11,12.7,13,10.6,13,8V7.5C13,7.2,12.8,7,12.5,7z"/><path fill="#3e3643" d="M8,11c1.7,0,3-1.3,3-3V3c0-1.7-1.3-3-3-3S5,1.3,5,3v0.5C5,3.8,5.2,4,5.5,4S6,3.8,6,3.5V3c0-1.1,0.9-2,2-2
				s2,0.9,2,2H8.5C8.2,3,8,3.2,8,3.5S8.2,4,8.5,4H10v1H8.5C8.2,5,8,5.2,8,5.5S8.2,6,8.5,6H10v1H8.5C8.2,7,8,7.2,8,7.5S8.2,8,8.5,8
				H10c0,1.1-0.9,2-2,2S6,9.1,6,8V5.5C6,5.2,5.8,5,5.5,5S5,5.2,5,5.5V8C5,9.7,6.3,11,8,11z"/></g><g display="none"><path fill="#a97a45" d="M8,16c-0.3,0-0.5-0.2-0.5-0.5V13c0-0.3,0.2-0.5,0.5-0.5s0.5,0.2,0.5,0.5v2.5C8.5,15.8,8.3,16,8,16z"/><path fill="#edbc7c" d="M12.5,7C12.2,7,12,7.2,12,7.5V8c0,2.2-1.8,4-4,4v1c2.8,0,5-2.2,5-5V7.5C13,7.2,12.8,7,12.5,7z"/><path fill="#f4d0a1" d="M8,12c-2.2,0-4-1.8-4-4V7.5C4,7.2,3.8,7,3.5,7S3,7.2,3,7.5V8c0,2.8,2.2,5,5,5V12z"/><path fill="#5b5c5f" d="M8,0C6.3,0,5,1.3,5,3v5c0,1.7,1.3,3,3,3V0z"/><path fill="#212121" d="M8,0v11c1.7,0,3-1.3,3-3V3C11,1.3,9.7,0,8,0z"/><path fill="#f0f0f0" d="M11 3v1H8.5C8.2 4 8 3.8 8 3.5 8 3.2 8.2 3 8.5 3H11zM11 5v1H8.5C8.2 6 8 5.8 8 5.5 8 5.2 8.2 5 8.5 5H11zM11 7v1H8.5C8.2 8 8 7.8 8 7.5 8 7.2 8.2 7 8.5 7H11z"/></g><g display="none"><path fill="#00ecce" d="M8,10.5L8,10.5c-1.4,0-2.5-1.1-2.5-2.5V3c0-1.4,1.1-2.5,2.5-2.5h0c1.4,0,2.5,1.1,2.5,2.5v5
			C10.5,9.4,9.4,10.5,8,10.5z"/><path fill="#01a28e" d="M12.5,7C12.2,7,12,7.2,12,7.5V8c0,2.2-1.8,4-4,4s-4-1.8-4-4V7.5C4,7.2,3.8,7,3.5,7S3,7.2,3,7.5V8
				c0,2.6,2,4.7,4.5,4.9v2.6C7.5,15.8,7.7,16,8,16s0.5-0.2,0.5-0.5v-2.6C11,12.7,13,10.6,13,8V7.5C13,7.2,12.8,7,12.5,7z"/><path fill="#01a28e" d="M8,11c1.7,0,3-1.3,3-3V3c0-1.7-1.3-3-3-3S5,1.3,5,3v0.5C5,3.8,5.2,4,5.5,4S6,3.8,6,3.5V3c0-1.1,0.9-2,2-2
				s2,0.9,2,2H8.5C8.2,3,8,3.2,8,3.5S8.2,4,8.5,4H10v1H8.5C8.2,5,8,5.2,8,5.5S8.2,6,8.5,6H10v1H8.5C8.2,7,8,7.2,8,7.5S8.2,8,8.5,8
				H10c0,1.1-0.9,2-2,2S6,9.1,6,8V5.5C6,5.2,5.8,5,5.5,5S5,5.2,5,5.5V8C5,9.7,6.3,11,8,11z"/></g><path fill="#1689fc" d="M8,16c-0.3,0-0.5-0.2-0.5-0.5v-3c0-0.3,1-0.3,1,0v3C8.5,15.8,8.3,16,8,16z"/><path fill="#3e5959" d="M8 13c-2.8 0-5-2.2-5-5V7.5C3 7.2 3.2 7 3.5 7S4 7.2 4 7.5V8c0 2.2 1.8 4 4 4s4-1.8 4-4V7.5C12 7.2 12.2 7 12.5 7S13 7.2 13 7.5V8C13 10.8 10.8 13 8 13zM10.5 4h-2C8.2 4 8 3.8 8 3.5S8.2 3 8.5 3h2C10.8 3 10.8 4 10.5 4zM10.5 6h-2C8.2 6 8 5.8 8 5.5S8.2 5 8.5 5h2C10.8 5 10.8 6 10.5 6z"/><path fill="#3e5959" d="M10.5,8h-2C8.2,8,8,7.8,8,7.5S8.2,7,8.5,7h2C10.8,7,10.8,8,10.5,8z"/><path fill="#1689fc" d="M8,11c-1.7,0-3-1.3-3-3V5.5C5,5.2,5.2,5,5.5,5S6,5.2,6,5.5V8c0,1.1,0.9,2,2,2s2-0.9,2-2V3c0-1.1-0.9-2-2-2
				S6,1.9,6,3v0.5C6,3.8,5.8,4,5.5,4S5,3.8,5,3.5V3c0-1.7,1.3-3,3-3s3,1.3,3,3v5C11,9.7,9.7,11,8,11z"/></svg>