<svg width="18" height="20" viewBox="0 0 18 20" fill="none" xmlns="http://www.w3.org/2000/svg">
<path d="M9 15C12.662 15 15.865 16.575 17.607 18.925L15.765 19.796C14.347 18.116 11.847 17 9 17C6.153 17 3.653 18.116 2.235 19.796L0.394001 18.924C2.136 16.574 5.338 15 9 15ZM9 0C10.3261 0 11.5979 0.526784 12.5355 1.46447C13.4732 2.40215 14 3.67392 14 5V8C13.9999 9.28846 13.5025 10.5272 12.6113 11.4578C11.7202 12.3884 10.5043 12.9391 9.217 12.995L9 13C7.67392 13 6.40215 12.4732 5.46447 11.5355C4.52678 10.5979 4 9.32608 4 8V5C4.00008 3.71154 4.49754 2.47284 5.38866 1.54222C6.27978 0.611607 7.49575 0.0609194 8.783 0.00500011L9 0ZM9 2C8.23479 1.99996 7.49849 2.29233 6.94174 2.81728C6.38499 3.34224 6.04989 4.06011 6.005 4.824L6 5V8C5.99925 8.7809 6.30302 9.53133 6.84677 10.0918C7.39052 10.6523 8.1314 10.9787 8.91196 11.0016C9.69253 11.0245 10.4513 10.7422 11.027 10.2145C11.6027 9.68691 11.9499 8.9556 11.995 8.176L12 8V5C12 4.20435 11.6839 3.44129 11.1213 2.87868C10.5587 2.31607 9.79565 2 9 2Z" fill="#999999"/>
</svg>
