<svg width="21" height="21" viewBox="0 0 21 21" fill="none" xmlns="http://www.w3.org/2000/svg">
<path d="M14 0C14.5523 0 15 0.447715 15 1V2H20V8H17.9813L20.7271 15.5439C20.9033 15.9948 21 16.4856 21 16.999C21 19.2082 19.2091 20.999 17 20.999C15.1365 20.999 13.5707 19.7247 13.1263 18H8.87398C8.42994 19.7252 6.86384 21 5 21C3.05551 21 1.43508 19.6125 1.07474 17.7736C0.435964 17.4396 0 16.7707 0 16V6C0 5.44772 0.447715 5 1 5H8C8.55228 5 9 5.44772 9 6V11C9 11.5523 9.44772 12 10 12H12C12.5523 12 13 11.5523 13 11V2H10V0H14ZM5 15C3.89543 15 3 15.8954 3 17C3 18.1046 3.89543 19 5 19C6.10457 19 7 18.1046 7 17C7 15.8954 6.10457 15 5 15ZM17 14.999C15.8954 14.999 15 15.8944 15 16.999C15 18.1036 15.8954 18.999 17 18.999C18.1046 18.999 19 18.1036 19 16.999C19 16.7587 18.9576 16.5282 18.8799 16.3148L18.8635 16.2714C18.5725 15.5266 17.8479 14.999 17 14.999ZM15.853 8H15V11C15 12.6569 13.6569 14 12 14H10C8.34315 14 7 12.6569 7 11H2V14.3542C2.73294 13.5238 3.80531 13 5 13C6.86384 13 8.42994 14.2748 8.87398 16H13.1258C13.5695 14.2743 15.1358 12.999 17 12.999C17.2368 12.999 17.4688 13.0196 17.6943 13.0591L15.853 8ZM7 7H2V9H7V7ZM18 4H15V6H18V4Z" fill="#999999"/>
</svg>
