<svg width="16" height="15" viewBox="0 0 16 15" fill="none" xmlns="http://www.w3.org/2000/svg">
<path d="M6.965 6.85669L13.5058 0.315857L14.6842 1.49419L13.5058 2.67336L15.5675 4.73502L14.3892 5.91419L12.3267 3.85169L11.1483 5.03002L12.9158 6.79752L11.7375 7.97669L9.97 6.20836L8.14333 8.03502C8.71037 8.89669 8.93779 9.93801 8.78159 10.9576C8.6254 11.9772 8.0967 12.9027 7.29772 13.5551C6.49874 14.2075 5.48623 14.5405 4.45598 14.4897C3.42572 14.4389 2.4509 14.0079 1.72 13.28C0.98752 12.5503 0.55252 11.5743 0.499542 10.5417C0.446564 9.50913 0.779392 8.49374 1.43334 7.69287C2.08729 6.89201 3.01564 6.36289 4.03796 6.20835C5.06029 6.05382 6.10355 6.2849 6.965 6.85669ZM6.43416 12.1009C6.67693 11.8712 6.87119 11.5953 7.00548 11.2893C7.13977 10.9833 7.21135 10.6535 7.216 10.3194C7.22064 9.98526 7.15826 9.65359 7.03253 9.34399C6.90681 9.03439 6.72029 8.75313 6.484 8.51685C6.24772 8.28056 5.96647 8.09405 5.65686 7.96832C5.34726 7.84259 5.0156 7.78021 4.68147 7.78486C4.34735 7.7895 4.01755 7.86109 3.71156 7.99537C3.40558 8.12966 3.12962 8.32393 2.9 8.56669C2.4446 9.0382 2.19262 9.6697 2.19831 10.3252C2.20401 10.9807 2.46693 11.6077 2.93045 12.0712C3.39397 12.5348 4.021 12.7977 4.67649 12.8034C5.33198 12.8091 5.96349 12.5571 6.435 12.1017L6.43416 12.1009Z" fill="#B3B3B3"/>
</svg>
