<svg width="17" height="20" viewBox="0 0 17 20" fill="none" xmlns="http://www.w3.org/2000/svg">
<path d="M4.81553 19.322L5.16215 17.1203L4.39004 17.1024H0.703125L3.26534 0.856269C3.2733 0.807225 3.29914 0.761494 3.33692 0.729019C3.3747 0.696544 3.42308 0.67865 3.47345 0.67865H9.6901C11.7539 0.67865 13.1782 1.10812 13.9218 1.95578C14.2704 2.35344 14.4924 2.76898 14.5998 3.22629C14.7125 3.70612 14.7145 4.27941 14.6044 4.97861L14.5965 5.02965V5.47767L14.9451 5.67517C15.2387 5.83092 15.472 6.0092 15.6509 6.21333C15.9492 6.55332 16.142 6.98544 16.2236 7.49775C16.3077 8.02464 16.2799 8.65161 16.142 9.36142C15.983 10.1779 15.7258 10.8891 15.3785 11.471C15.0591 12.0071 14.6522 12.4519 14.169 12.7965C13.7077 13.1239 13.1596 13.3724 12.54 13.5315C11.9395 13.6879 11.2549 13.7668 10.504 13.7668H10.0202C9.6742 13.7668 9.33818 13.8914 9.0744 14.1147C8.80996 14.3427 8.635 14.6542 8.58131 14.9949L8.54486 15.193L7.93247 19.0735L7.90464 19.216C7.89735 19.261 7.88476 19.2836 7.8662 19.2988C7.84963 19.3127 7.82577 19.322 7.80257 19.322H4.81553Z" fill="#253B80"/>
<path d="M15.2754 5.08136C15.2569 5.19999 15.2357 5.32128 15.2118 5.44588C14.392 9.65504 11.5872 11.1091 8.00498 11.1091H6.18107C5.74299 11.1091 5.37383 11.4273 5.30557 11.8594L4.37175 17.7818L4.10731 19.4605C4.0629 19.7442 4.28161 20 4.56792 20H7.80284C8.18591 20 8.51132 19.7217 8.57163 19.3439L8.60345 19.1795L9.21252 15.3143L9.25162 15.1022C9.31127 14.7231 9.63735 14.4448 10.0204 14.4448H10.5042C13.6384 14.4448 16.0919 13.1723 16.809 9.49002C17.1086 7.95176 16.9535 6.66734 16.1609 5.764C15.9209 5.49161 15.6234 5.26561 15.2754 5.08136Z" fill="#179BD7"/>
<path d="M14.4174 4.73933C14.2922 4.70288 14.1629 4.66974 14.0304 4.63992C13.8972 4.61076 13.7606 4.58491 13.6201 4.56238C13.1284 4.48285 12.5895 4.44507 12.0123 4.44507H7.13969C7.01973 4.44507 6.90573 4.47224 6.80367 4.52129C6.57899 4.62931 6.41198 4.84206 6.37155 5.10252L5.335 11.6678L5.30518 11.8593C5.37344 11.4272 5.7426 11.1091 6.18068 11.1091H8.00458C11.5868 11.1091 14.3916 9.65434 15.2114 5.44583C15.2359 5.32123 15.2565 5.19995 15.275 5.08131C15.0676 4.9713 14.8429 4.87719 14.601 4.79699C14.5414 4.77711 14.4797 4.75789 14.4174 4.73933Z" fill="#222D65"/>
<path d="M6.37173 5.10256C6.41216 4.8421 6.57918 4.62935 6.80385 4.52199C6.90658 4.47294 7.01991 4.44577 7.13987 4.44577H12.0125C12.5897 4.44577 13.1285 4.48355 13.6203 4.56308C13.7608 4.58561 13.8973 4.61146 14.0305 4.64062C14.1631 4.67045 14.2923 4.70358 14.4176 4.74003C14.4799 4.75859 14.5415 4.77781 14.6018 4.79703C14.8438 4.87723 15.0684 4.972 15.2759 5.08135C15.5198 3.52586 15.2739 2.46678 14.4328 1.50777C13.5056 0.452 11.8322 0 9.69082 0H3.47416C3.03674 0 2.66361 0.318123 2.59601 0.750903L0.00662016 17.1641C-0.0444121 17.4888 0.20611 17.7818 0.533512 17.7818H4.37154L5.33518 11.6678L6.37173 5.10256Z" fill="#253B80"/>
</svg>
