<svg width="7" height="12" viewBox="0 0 7 12" fill="none" xmlns="http://www.w3.org/2000/svg">
<path d="M0.93681 11.78C0.810143 11.78 0.683477 11.7333 0.583477 11.6333C0.390143 11.44 0.390143 11.12 0.583477 10.9267L4.93014 6.58C5.25014 6.26 5.25014 5.74 4.93014 5.42L0.583477 1.07333C0.390143 0.879998 0.390143 0.559998 0.583477 0.366664C0.77681 0.173331 1.09681 0.173331 1.29014 0.366664L5.63681 4.71333C5.97681 5.05333 6.17014 5.51333 6.17014 6C6.17014 6.48666 5.98348 6.94666 5.63681 7.28666L1.29014 11.6333C1.19014 11.7267 1.06348 11.78 0.93681 11.78Z" fill="#292D32"/>
</svg>
