<svg width="11" height="12" viewBox="0 0 11 12" fill="none" xmlns="http://www.w3.org/2000/svg">
<path d="M5.21678 12C4.60862 12 4.00604 11.8215 3.53179 11.47L1.13263 9.67895C0.496571 9.2047 0 8.21155 0 7.42485V3.27374C0 2.41451 0.630478 1.49948 1.4395 1.19819L4.22364 0.15483C4.77601 -0.0516099 5.6464 -0.0516099 6.19877 0.15483L8.98291 1.19819C9.79193 1.49948 10.4224 2.41451 10.4224 3.27374V7.41927C10.4224 8.21155 9.92584 9.19912 9.28978 9.67337L6.89062 11.4644C6.42753 11.8215 5.82494 12 5.21678 12ZM4.51935 0.941532L1.73521 1.98489C1.26096 2.16343 0.842497 2.76601 0.842497 3.27932V7.42485C0.842497 7.9549 1.21632 8.69697 1.63478 9.00941L4.03394 10.8004C4.67558 11.2803 5.75799 11.2803 6.40521 10.8004L8.80437 9.00941C9.22841 8.69139 9.59665 7.9549 9.59665 7.42485V3.27374C9.59665 2.76601 9.17819 2.16343 8.70394 1.97931L5.9198 0.935953C5.54039 0.802046 4.89318 0.802046 4.51935 0.941532Z" fill="#60666B"/>
</svg>
