<svg width="14" height="19" viewBox="0 0 14 19" fill="none" xmlns="http://www.w3.org/2000/svg">
<path d="M0.333328 18.3333C0.333328 16.5652 1.03571 14.8695 2.28595 13.6193C3.53619 12.369 5.23188 11.6666 6.99999 11.6666C8.7681 11.6666 10.4638 12.369 11.714 13.6193C12.9643 14.8695 13.6667 16.5652 13.6667 18.3333H12C12 17.0072 11.4732 15.7355 10.5355 14.7978C9.59785 13.8601 8.32608 13.3333 6.99999 13.3333C5.67391 13.3333 4.40214 13.8601 3.46446 14.7978C2.52678 15.7355 1.99999 17.0072 1.99999 18.3333H0.333328ZM6.99999 10.8333C4.23749 10.8333 1.99999 8.59581 1.99999 5.83331C1.99999 3.07081 4.23749 0.833313 6.99999 0.833313C9.7625 0.833313 12 3.07081 12 5.83331C12 8.59581 9.7625 10.8333 6.99999 10.8333ZM6.99999 9.16665C8.84166 9.16665 10.3333 7.67498 10.3333 5.83331C10.3333 3.99165 8.84166 2.49998 6.99999 2.49998C5.15833 2.49998 3.66666 3.99165 3.66666 5.83331C3.66666 7.67498 5.15833 9.16665 6.99999 9.16665Z" fill="#B3B3B3"/>
</svg>
