<svg width="15" height="8" viewBox="0 0 15 8" fill="none" xmlns="http://www.w3.org/2000/svg">
<path d="M6.33125 5.90125L5.83875 7.73875L4.63188 7.415L5.12375 5.57813C4.38748 5.30658 3.7032 4.91085 3.10063 4.40813L1.755 5.75438L0.870626 4.87L2.21688 3.52438C1.45692 2.61423 0.946305 1.52235 0.735001 0.355627L1.2975 0.252502C3.10327 1.55449 5.27381 2.25351 7.5 2.25C9.815 2.25 11.9569 1.50938 13.7025 0.252502L14.265 0.355002C14.054 1.52189 13.5436 2.61398 12.7838 3.52438L14.1294 4.87L13.245 5.75438L11.8994 4.40813C11.2968 4.91085 10.6125 5.30658 9.87625 5.57813L10.3681 7.41563L9.16125 7.73875L8.66875 5.90125C7.89522 6.0338 7.10478 6.0338 6.33125 5.90125Z" fill="#4285F4"/>
</svg>
