<svg width="351" height="351" viewBox="0 0 351 351" fill="none" xmlns="http://www.w3.org/2000/svg">
<g opacity="0.2" clip-path="url(#clip0_1_15246)">
<path d="M92.5254 273.683C89.3769 275.119 87.9755 278.782 89.3123 281.949L88.9863 283.592C88.9345 283.873 89.1139 284.147 89.3947 284.208C89.7215 284.28 90.0445 284.304 90.364 284.295L91.2587 286.257C90.8337 286.854 90.7239 287.642 91.0499 288.357C91.376 289.072 92.0433 289.506 92.7729 289.577L93.9979 292.263C94.6027 293.589 96.1876 294.182 97.5138 293.577L114.9 285.648C116.226 285.043 116.818 283.459 116.213 282.132L114.988 279.446C115.413 278.849 115.523 278.06 115.197 277.345C114.871 276.63 114.204 276.196 113.474 276.126L112.6 274.209C112.854 273.952 113.074 273.66 113.255 273.327C113.322 273.203 113.337 273.057 113.296 272.921C113.254 272.785 113.162 272.672 113.036 272.607L111.491 271.816C109.971 268.743 106.293 267.405 103.15 268.838L92.5254 273.683ZM92.9659 274.649L103.591 269.804C106.115 268.653 109.014 269.614 110.372 271.962L90.1488 281.184C89.2664 278.62 90.4418 275.8 92.9659 274.649ZM94.8764 274.361C94.4765 274.544 94.3 275.016 94.4824 275.416C94.6648 275.816 95.1372 275.992 95.5372 275.81C95.9371 275.628 96.1136 275.155 95.9312 274.755C95.7488 274.355 95.2764 274.179 94.8764 274.361ZM92.682 275.945C92.282 276.128 92.1055 276.6 92.2879 277C92.4703 277.4 92.9427 277.577 93.3427 277.394C93.7426 277.212 93.9191 276.739 93.7367 276.339C93.5544 275.94 93.0819 275.763 92.682 275.945ZM94.7915 276.734C94.3916 276.916 94.2151 277.388 94.3974 277.788C94.5798 278.188 95.0523 278.365 95.4522 278.182C95.8522 278 96.0287 277.528 95.8463 277.128C95.6639 276.728 95.1914 276.551 94.7915 276.734ZM90.3327 282.267L111.084 272.804L111.988 273.267C111.282 274.147 110.188 274.571 109.041 274.319C108.833 274.275 108.621 274.358 108.499 274.53L107.929 275.319C107.923 275.321 107.919 275.323 107.913 275.325C107.242 276.288 106.182 276.76 105.076 276.619C105.07 276.622 105.067 276.624 105.061 276.626L104.092 276.54C103.916 276.524 103.744 276.596 103.632 276.731L102.529 278.109L102.514 278.116C101.901 278.835 100.999 279.247 100.054 279.238L100.039 279.245L98.2745 279.174C98.0993 279.17 97.9321 279.253 97.8286 279.396L97.2434 280.191C96.5724 281.154 95.5117 281.626 94.4061 281.485C94.4005 281.488 94.3967 281.489 94.391 281.492L93.4217 281.405C93.2119 281.385 93.0095 281.491 92.9073 281.676C92.3402 282.717 91.2823 283.265 90.143 283.21L90.3327 282.267ZM93.5988 282.473L94.2797 282.527L94.2715 282.549C95.7669 282.74 97.2246 282.064 98.1049 280.801L98.5105 280.251L100.008 280.298C100.017 280.301 100.022 280.303 100.03 280.306C101.304 280.325 102.515 279.772 103.335 278.799C103.338 278.79 103.341 278.785 103.344 278.777L104.291 277.616L104.957 277.676L104.972 277.67C106.462 277.854 107.897 277.193 108.775 275.935L109.174 275.371C110.08 275.484 110.972 275.291 111.731 274.861L112.384 276.295L92.1007 285.545L91.4469 284.111C92.3095 283.834 93.0685 283.264 93.5988 282.473ZM92.5412 286.51L112.825 277.26C113.4 276.998 113.969 277.21 114.231 277.786C114.494 278.361 114.281 278.93 113.706 279.192L93.4222 288.442C92.8468 288.705 92.2782 288.492 92.0158 287.917C91.7534 287.341 91.9658 286.773 92.5412 286.51ZM93.8626 289.408L114.146 280.158L115.247 282.573C115.612 283.373 115.259 284.318 114.459 284.682L97.0734 292.611C96.2735 292.976 95.3286 292.623 94.9638 291.823L93.8626 289.408Z" fill="white"/>
</g>
<g opacity="0.2" clip-path="url(#clip1_1_15246)">
<path d="M57.2728 72.7919L57.0993 73.4643C56.9271 74.1315 56.6635 74.4473 56.2845 74.7109C55.9055 74.9745 55.3706 75.1474 54.7743 75.3521C54.1779 75.5568 53.5182 75.79 52.9041 76.2591C52.4183 76.6324 52.0204 77.2189 51.7335 77.9293C49.3037 77.574 46.921 78.7409 46.0484 80.7654C43.1892 80.3049 39.8821 81.8187 38.9331 85.496C38.3325 87.8232 38.7627 90.0971 40.2474 91.9539C40.3914 92.1339 40.554 92.3075 40.7171 92.4785L40.4358 99.7348L40.4514 99.7613L40.4406 99.8033C40.5034 100.722 41.0665 101.601 42.0199 101.847L57.9059 105.947C58.8909 106.201 59.8815 105.717 60.3143 104.865L64.3325 96.9367C65.4701 96.5887 67.9149 95.4743 68.7473 92.2487C69.6014 88.9392 67.3452 84.7849 63.231 82.5325C63.5588 78.0926 60.7222 74.4721 58.1709 73.0461L58.0923 73.0034L57.2728 72.7919ZM58.0374 74.6926C60.0531 76.1093 62.313 79.1747 61.8604 82.8064L61.7988 83.306L62.2339 83.5303C66.1162 85.4763 68.0478 89.4011 67.4025 91.9017C66.7178 94.5546 65.2335 95.1605 64.3705 95.4C64.3556 95.1973 64.4633 94.9645 64.3962 94.7791C64.1931 94.2308 63.7389 93.8307 63.2419 93.6071C62.2459 93.1568 61.0057 93.2402 59.7625 93.6281C58.5806 94.0067 57.383 94.7174 55.5877 95.1282C53.7923 95.539 51.4149 95.6651 48.0107 94.7866C45.2554 94.0755 43.2625 93.0261 41.9698 91.7932C41.9307 91.7383 41.8824 91.6866 41.8288 91.6448C41.644 91.4598 41.475 91.2789 41.3225 91.0883C40.0958 89.5558 39.7675 87.821 40.2779 85.8431C41.0493 82.854 43.5669 81.7723 45.7488 82.1001C45.6377 83.475 45.9985 84.7475 46.8055 85.7347C47.7749 86.9177 49.1493 87.8019 50.5533 88.4948C53.3615 89.8807 56.3387 90.4809 56.3387 90.4809C56.7152 90.5529 57.0815 90.3056 57.1535 89.9292C57.2254 89.5527 56.9782 89.1863 56.6017 89.1144C56.6017 89.1144 53.7888 88.5286 51.1891 87.2469C49.8893 86.6061 48.6553 85.7862 47.886 84.848C47.1252 83.9205 46.778 82.9428 47.0889 81.6839C47.0923 81.6707 47.0963 81.655 47.0997 81.6418C47.5146 80.0343 49.8664 78.7698 52.0019 79.3209L52.6743 79.4944L52.8478 78.822C53.0451 78.0577 53.3467 77.6704 53.7378 77.3708C54.129 77.0711 54.6541 76.8816 55.2379 76.6821C55.8217 76.4825 56.4608 76.2749 57.0654 75.8537C57.4517 75.5836 57.7706 75.1728 58.0374 74.6926ZM62.2278 94.7574C62.4026 94.7857 62.5484 94.8178 62.6691 94.8713C62.9097 94.981 63.0267 95.0813 63.0873 95.2482C63.1479 95.4151 63.1741 95.6936 63.0121 96.1477L62.625 97.2133L59.0663 104.229C58.9187 104.519 58.6128 104.695 58.2529 104.602L42.367 100.502C42.1096 100.436 41.8574 100.11 41.8308 99.7138L42.0505 93.6519C42.8402 94.2283 43.7773 94.7334 44.8391 95.1784L44.7503 98.5622C44.7428 98.9496 45.0522 99.2704 45.4397 99.278C45.8271 99.2855 46.1479 98.9761 46.1555 98.5886L46.209 95.6888C46.6763 95.843 47.1541 95.9999 47.6637 96.1314C47.8003 96.1667 47.9337 96.1815 48.0683 96.2134L47.6508 99.221C47.5946 99.6015 47.861 99.9589 48.2422 100.012C48.6227 100.069 48.98 99.8022 49.0336 99.421L49.4295 96.4974C50.0694 96.6122 50.6735 96.6924 51.2488 96.7428L50.5615 99.9273C50.4843 100.302 50.7249 100.673 51.1 100.75C51.4751 100.827 51.8454 100.586 51.9226 100.211L52.6587 96.8377C53.4199 96.8409 54.1205 96.7751 54.76 96.6852L53.4619 100.586C53.3375 100.949 53.5318 101.347 53.8947 101.471C54.2576 101.596 54.6552 101.401 54.7797 101.038L56.3468 96.3551C57.3661 96.0858 58.1903 95.7578 58.8854 95.4637C58.8322 95.5285 58.7916 95.5992 58.7627 95.6786L56.4567 101.314C56.3292 101.547 56.3455 101.832 56.4991 102.051C56.6534 102.267 56.9164 102.377 57.1799 102.333C57.4434 102.289 57.6574 102.1 57.7317 101.845L60.0431 96.1884C60.1269 95.9831 60.1083 95.7513 59.9946 95.5623C59.8809 95.3733 59.6805 95.2487 59.4609 95.2312C59.7308 95.1188 59.9645 95.0166 60.1841 94.9472C60.9492 94.7076 61.7001 94.6745 62.2278 94.7574Z" fill="white"/>
</g>
<g opacity="0.2" clip-path="url(#clip2_1_15246)">
<path d="M296.429 278.31C296.341 278.285 296.254 278.268 296.14 278.264C295.914 278.257 295.698 278.343 295.541 278.451C295.385 278.558 295.267 278.683 295.136 278.831C294.709 279.31 293.549 280.762 292.99 281.442C292.968 281.467 292.958 281.499 292.939 281.525C292.928 281.533 292.916 281.544 292.907 281.554L288.759 286.054L288.703 286.095C288.675 286.123 288.65 286.157 288.628 286.189L279.611 295.923C279.598 295.939 279.585 295.954 279.573 295.971L274.16 301.798C273.989 301.979 273.943 302.247 274.048 302.474C274.153 302.702 274.386 302.841 274.635 302.829L301.986 301.782C302.005 301.784 302.026 301.784 302.046 301.784C302.678 301.811 304.912 301.859 305.497 301.876C305.873 301.888 306.283 301.846 306.632 301.562C306.982 301.278 307.138 300.799 307.114 300.313C307.029 298.557 307.185 293.168 304.935 288.279C302.753 283.542 298.956 280.028 297.082 278.694C296.874 278.546 296.694 278.387 296.429 278.31ZM296.185 279.524C296.168 279.533 296.172 279.55 296.385 279.7C298.058 280.888 301.78 284.337 303.83 288.788C305.927 293.345 305.796 298.438 305.89 300.371C305.902 300.627 305.861 300.607 305.865 300.606C305.868 300.604 305.774 300.657 305.543 300.65C304.925 300.631 302.671 300.588 302.109 300.564C302.097 300.564 302.081 300.566 302.067 300.569C302.069 300.57 302.077 300.555 302.078 300.43C302.076 298.771 301.867 294.674 299.974 290.563C298.143 286.588 295.293 283.813 293.967 282.659C293.843 282.552 293.787 282.485 293.756 282.458C293.763 282.446 293.809 282.404 293.825 282.382C293.872 282.336 293.912 282.282 293.945 282.222C294.522 281.521 295.727 280.025 296.053 279.659C296.123 279.58 296.151 279.552 296.185 279.524ZM292.91 283.369C292.994 283.446 293.082 283.516 293.157 283.582C294.405 284.667 297.151 287.343 298.869 291.072C300.645 294.928 300.848 298.89 300.849 300.445C300.85 300.491 300.854 300.544 300.857 300.591L291.16 300.963C291.391 300.697 291.593 300.399 291.722 300.05C292.305 298.472 291.49 296.703 289.912 296.12C288.334 295.538 286.566 296.352 285.983 297.93C285.56 299.076 285.889 300.308 286.697 301.129L276.092 301.533L279.482 297.873C279.724 298.515 280.218 299.062 280.906 299.316C282.166 299.781 283.583 299.13 284.049 297.868C284.515 296.606 283.861 295.19 282.601 294.725C282.548 294.705 282.489 294.698 282.433 294.683L286.231 290.583C286.552 291.649 287.344 292.563 288.464 292.977C290.359 293.677 292.479 292.702 293.18 290.805C293.88 288.909 292.902 286.79 291.008 286.09C290.851 286.032 290.688 285.99 290.528 285.954L292.91 283.369ZM290.584 287.238C291.86 287.709 292.503 289.106 292.032 290.381C291.561 291.657 290.164 292.3 288.888 291.829C287.855 291.448 287.241 290.462 287.29 289.425L289.451 287.105C289.821 287.061 290.21 287.1 290.584 287.238ZM297.771 292.501C296.511 292.036 295.093 292.687 294.627 293.949C294.559 294.135 294.504 294.318 294.482 294.507C293.568 294.762 292.772 295.439 292.42 296.394C291.837 297.973 292.651 299.741 294.229 300.324C295.808 300.907 297.576 300.092 298.159 298.514C298.364 297.958 298.382 297.386 298.267 296.842C298.692 296.561 299.031 296.153 299.219 295.644C299.685 294.382 299.031 292.966 297.771 292.501ZM297.347 293.649C297.988 293.886 298.308 294.579 298.071 295.221C298.005 295.398 297.904 295.562 297.778 295.683C297.433 295.194 296.95 294.807 296.349 294.585C296.152 294.512 295.955 294.457 295.755 294.427C295.762 294.409 295.769 294.391 295.775 294.373C296.012 293.732 296.706 293.412 297.347 293.649ZM295.925 295.732C296.389 295.904 296.729 296.246 296.93 296.654C296.949 296.735 296.982 296.808 297.032 296.875C297.159 297.256 297.162 297.68 297.011 298.09C296.657 299.047 295.611 299.529 294.653 299.176C293.696 298.822 293.214 297.776 293.568 296.818C293.804 296.177 294.353 295.753 294.978 295.648C295.098 295.674 295.223 295.662 295.336 295.617C295.532 295.623 295.73 295.66 295.925 295.732ZM289.488 297.268C290.446 297.622 290.928 298.669 290.574 299.626C290.221 300.583 289.174 301.065 288.217 300.712C287.259 300.358 286.777 299.311 287.131 298.354C287.484 297.397 288.531 296.915 289.488 297.268ZM282.178 295.873C282.819 296.109 283.138 296.803 282.901 297.444C282.665 298.085 281.971 298.405 281.33 298.168C280.72 297.943 280.397 297.299 280.573 296.686L281.318 295.881C281.586 295.779 281.886 295.765 282.178 295.873Z" fill="white"/>
</g>
<g filter="url(#filter0_d_1_15246)">
<path fill-rule="evenodd" clip-rule="evenodd" d="M187.083 303.253C187.083 287.455 199.891 274.647 215.69 274.647C231.488 274.647 244.296 287.455 244.296 303.253C244.296 319.052 231.488 331.86 215.69 331.86C199.891 331.86 187.083 319.052 187.083 303.253ZM215.514 283.773C204.852 283.773 196.209 292.416 196.209 303.078C196.209 313.74 204.852 322.383 215.514 322.383C226.176 322.383 234.819 313.74 234.819 303.078C234.819 292.416 226.176 283.773 215.514 283.773Z" fill="white"/>
</g>
<rect x="157.95" y="56.8621" width="17.55" height="17.55" rx="8.775" fill="#00A9DE"/>
<rect x="194.805" y="45.981" width="10.53" height="10.53" rx="5.265" fill="#207FBF"/>
<rect x="184.275" y="337.476" width="5.616" height="5.616" rx="2.808" fill="#207FBF"/>
<rect x="260.091" y="109.512" width="25.974" height="25.974" rx="12.987" fill="#ACDBFB"/>
<defs>
<filter id="filter0_d_1_15246" x="177.083" y="264.647" width="77.213" height="77.213" filterUnits="userSpaceOnUse" color-interpolation-filters="sRGB">
<feFlood flood-opacity="0" result="BackgroundImageFix"/>
<feColorMatrix in="SourceAlpha" type="matrix" values="0 0 0 0 0 0 0 0 0 0 0 0 0 0 0 0 0 0 127 0" result="hardAlpha"/>
<feOffset/>
<feGaussianBlur stdDeviation="5"/>
<feComposite in2="hardAlpha" operator="out"/>
<feColorMatrix type="matrix" values="0 0 0 0 0 0 0 0 0 0 0 0 0 0 0 0 0 0 0.1 0"/>
<feBlend mode="normal" in2="BackgroundImageFix" result="effect1_dropShadow_1_15246"/>
<feBlend mode="normal" in="SourceGraphic" in2="effect1_dropShadow_1_15246" result="shape"/>
</filter>
<clipPath id="clip0_1_15246">
<rect width="26.5395" height="26.5395" fill="white" transform="translate(84.4428 273.869) rotate(-24.5144)"/>
</clipPath>
<clipPath id="clip1_1_15246">
<rect width="34.7225" height="34.7225" fill="white" transform="translate(41.4818 67.2823) rotate(14.4703)"/>
</clipPath>
<clipPath id="clip2_1_15246">
<rect width="30.5895" height="30.5895" fill="white" transform="translate(284.431 273.879) rotate(20.2707)"/>
</clipPath>
</defs>
</svg>
